<svg preserveAspectRatio="none" overflow="visible" style="display: block;" width="24" height="24" viewBox="0 0 24 24" fill="none" xmlns="http://www.w3.org/2000/svg">
<g id="filter 1">
<path id="Vector" d="M13.3125 18.375H3M13.3125 5.8125H3M10.6875 12H21" stroke="black" stroke-width="2" stroke-linecap="round"/>
<path id="Vector_2" d="M16.0312 18.2812C16.0312 19.8345 17.2904 21.0938 18.8438 21.0938V19.7812C18.0153 19.7812 17.3438 19.1096 17.3438 18.2812H16.0312ZM18.8438 21.0938C20.397 21.0938 21.6562 19.8345 21.6562 18.2812H20.3438C20.3438 19.1096 19.6721 19.7812 18.8438 19.7812V21.0938ZM21.6562 18.2812C21.6562 16.7279 20.397 15.4688 18.8438 15.4688V16.7812C19.6721 16.7812 20.3438 17.4528 20.3438 18.2812H21.6562ZM18.8438 15.4688C17.2904 15.4688 16.0312 16.7279 16.0312 18.2812H17.3438C17.3438 17.4528 18.0153 16.7812 18.8438 16.7812V15.4688ZM16.0312 5.71875C16.0312 7.27206 17.2904 8.53125 18.8438 8.53125V7.21875C18.0153 7.21875 17.3438 6.54718 17.3438 5.71875H16.0312ZM18.8438 8.53125C20.397 8.53125 21.6562 7.27206 21.6562 5.71875H20.3438C20.3438 6.54718 19.6721 7.21875 18.8438 7.21875V8.53125ZM21.6562 5.71875C21.6562 4.16544 20.397 2.90625 18.8438 2.90625V4.21875C19.6721 4.21875 20.3438 4.89032 20.3438 5.71875H21.6562ZM18.8438 2.90625C17.2904 2.90625 16.0312 4.16544 16.0312 5.71875H17.3438C17.3438 4.89032 18.0153 4.21875 18.8438 4.21875V2.90625ZM7.96875 11.9062C7.96875 13.4596 6.70956 14.7188 5.15625 14.7188V13.4062C5.98468 13.4062 6.65625 12.7347 6.65625 11.9062H7.96875ZM5.15625 14.7188C3.60294 14.7188 2.34375 13.4596 2.34375 11.9062H3.65625C3.65625 12.7347 4.32782 13.4062 5.15625 13.4062V14.7188ZM2.34375 11.9062C2.34375 10.3529 3.60294 9.09375 5.15625 9.09375V10.4062C4.32782 10.4062 3.65625 11.0778 3.65625 11.9062H2.34375ZM5.15625 9.09375C6.70956 9.09375 7.96875 10.3529 7.96875 11.9062H6.65625C6.65625 11.0778 5.98468 10.4062 5.15625 10.4062V9.09375Z" fill="black"/>
</g>
</svg>
