<svg preserveAspectRatio="none" overflow="visible" style="display: block;" width="20" height="20" viewBox="0 0 20 20" fill="none" xmlns="http://www.w3.org/2000/svg">
<g id="password 2">
<path id="Vector" d="M9.4434 14.6076H10.5567C11.0723 14.6076 11.4493 14.1198 11.3179 13.6205L10.9641 12.2751C11.2255 11.9963 11.3552 11.6131 11.3137 11.2274C11.2446 10.5823 10.7023 10.0765 10.0524 10.0511C9.29297 10.0225 8.67844 10.6279 8.67844 11.3721C8.67844 11.7096 8.80746 12.0329 9.03598 12.2762L8.6823 13.6203C8.55102 14.1193 8.92695 14.6076 9.4434 14.6076ZM9.05266 13.7179L9.43469 12.2659C9.4437 12.2317 9.44303 12.1956 9.43275 12.1617C9.42247 12.1278 9.40297 12.0974 9.37645 12.0739C9.27732 11.9858 9.19799 11.8778 9.14368 11.7568C9.08937 11.6358 9.06132 11.5047 9.06137 11.3721C9.06137 10.8486 9.48602 10.4329 9.99937 10.4329C10.012 10.4329 10.0247 10.4333 10.0374 10.4336C10.4988 10.4518 10.8839 10.8106 10.933 11.2682C10.966 11.5759 10.8532 11.8691 10.6236 12.0728C10.5971 12.0962 10.5776 12.1266 10.5673 12.1605C10.557 12.1943 10.5563 12.2304 10.5653 12.2646L10.9474 13.7177C11.0149 13.9738 10.8219 14.2246 10.5567 14.2246H9.4434C9.17883 14.2246 8.98504 13.9746 9.05266 13.7179Z" fill="#4E4E4E"/>
<path id="Vector_2" d="M16.2636 15.2598C16.854 14.2232 17.1963 13.028 17.1963 11.7521C17.1963 10.1265 16.1891 8.73379 14.7668 8.15922V5.0016C14.7668 2.37312 12.6284 0.234727 9.99996 0.234727C7.37156 0.234727 5.23316 2.37312 5.23316 5.0016V8.15922C3.81094 8.73379 2.80371 10.1265 2.80371 11.7523C2.80371 13.0281 3.14598 14.2233 3.73633 15.2598C2.52605 15.2975 1.55246 16.2915 1.55246 17.5107C1.55246 18.7538 2.56379 19.7653 3.80688 19.7653H16.1931C17.4362 19.7653 18.4475 18.7539 18.4475 17.5107C18.4475 16.2915 17.4739 15.2975 16.2636 15.2598ZM5.61609 5.0016C5.61609 2.58422 7.58266 0.617656 9.99992 0.617656C12.4172 0.617656 14.3839 2.58422 14.3839 5.0016V8.02836C14.0455 7.9316 13.6897 7.87652 13.3207 7.87652H12.709V5.00156C12.709 3.50769 11.4937 2.29246 9.99992 2.29246C8.50613 2.29246 7.29082 3.50769 7.29082 5.00156V7.87652H6.67918C6.3102 7.87652 5.95437 7.9316 5.61605 8.02836V5.0016H5.61609ZM12.3261 7.87656H7.67383V5.0016C7.67383 3.71906 8.7173 2.67547 9.99996 2.67547C11.2826 2.67547 12.3261 3.71906 12.3261 5.0016V7.87656ZM6.67922 8.25953H13.3207C15.2465 8.25953 16.8133 9.82629 16.8133 11.7521V11.7523C16.8133 13.0366 16.4468 14.2341 15.8204 15.2563H4.17973C3.5532 14.2341 3.18664 13.0364 3.18664 11.7521C3.18668 9.82629 4.75344 8.25953 6.67922 8.25953ZM16.1931 19.3823H3.80691C2.775 19.3823 1.93543 18.5427 1.93543 17.5107C1.93543 16.4787 2.775 15.6392 3.80691 15.6392H16.1931C17.225 15.6392 18.0646 16.4787 18.0646 17.5107C18.0646 18.5427 17.225 19.3823 16.1931 19.3823Z" fill="#4E4E4E"/>
<path id="Vector_3" d="M5.37441 17.8081L4.85621 17.5089L5.3675 17.2137C5.41149 17.1883 5.44358 17.1465 5.45673 17.0974C5.46988 17.0483 5.46301 16.9961 5.43762 16.9521C5.38461 16.8603 5.26738 16.8288 5.17602 16.882L4.66469 17.1772V16.5846C4.6647 16.5595 4.65975 16.5346 4.65013 16.5114C4.64051 16.4881 4.62641 16.467 4.60863 16.4492C4.59084 16.4314 4.56973 16.4173 4.54649 16.4077C4.52326 16.3981 4.49835 16.3932 4.4732 16.3932C4.44805 16.3932 4.42315 16.3981 4.39991 16.4077C4.37668 16.4173 4.35556 16.4314 4.33778 16.4492C4.32 16.467 4.30589 16.4881 4.29627 16.5114C4.28665 16.5346 4.28171 16.5595 4.28172 16.5846V17.1772L3.77039 16.882C3.74862 16.8693 3.72458 16.8611 3.69963 16.8578C3.67469 16.8545 3.64933 16.8562 3.62503 16.8627C3.60072 16.8692 3.57794 16.8804 3.55799 16.8958C3.53805 16.9111 3.52133 16.9303 3.50879 16.9521C3.48341 16.9961 3.47654 17.0483 3.48969 17.0974C3.50284 17.1464 3.53493 17.1883 3.57891 17.2137L4.09016 17.5089L3.57191 17.8081C3.52858 17.8338 3.49712 17.8756 3.48437 17.9243C3.47161 17.9731 3.47859 18.0249 3.50378 18.0685C3.52898 18.1122 3.57036 18.1441 3.61896 18.1575C3.66755 18.1708 3.71945 18.1645 3.7634 18.1398L4.28172 17.8405V18.437C4.28171 18.4621 4.28665 18.487 4.29627 18.5102C4.30589 18.5335 4.32 18.5546 4.33778 18.5724C4.35556 18.5902 4.37668 18.6043 4.39991 18.6139C4.42315 18.6235 4.44805 18.6284 4.4732 18.6284C4.49835 18.6284 4.52326 18.6235 4.54649 18.6139C4.56973 18.6043 4.59084 18.5902 4.60863 18.5724C4.62641 18.5546 4.64051 18.5335 4.65013 18.5102C4.65975 18.487 4.6647 18.4621 4.66469 18.437V17.8406L5.18293 18.1398C5.21198 18.1566 5.24493 18.1654 5.27848 18.1655C5.32065 18.1655 5.36166 18.1516 5.39513 18.126C5.42861 18.1003 5.45268 18.0643 5.46362 18.0236C5.47455 17.9829 5.47174 17.9397 5.45561 17.9007C5.43948 17.8617 5.41094 17.8292 5.37441 17.8081ZM9.05902 17.8081L8.54074 17.5088L9.05203 17.2136C9.09602 17.1882 9.12811 17.1464 9.14126 17.0974C9.15441 17.0483 9.14754 16.996 9.12215 16.952C9.06914 16.8602 8.95191 16.8288 8.86055 16.8819L8.34922 17.1771V16.5846C8.34923 16.5595 8.34428 16.5346 8.33466 16.5113C8.32504 16.4881 8.31094 16.467 8.29316 16.4492C8.27537 16.4314 8.25426 16.4173 8.23102 16.4077C8.20779 16.3981 8.18288 16.3931 8.15773 16.3931C8.13258 16.3931 8.10768 16.3981 8.08444 16.4077C8.06121 16.4173 8.04009 16.4314 8.02231 16.4492C8.00453 16.467 7.99042 16.4881 7.9808 16.5113C7.97119 16.5346 7.96624 16.5595 7.96625 16.5846V17.1771L7.45492 16.8819C7.43316 16.8693 7.40911 16.8611 7.38416 16.8577C7.35921 16.8544 7.33386 16.8561 7.30955 16.8626C7.28524 16.8691 7.26245 16.8804 7.24251 16.8957C7.22256 16.9111 7.20585 16.9302 7.19332 16.952C7.16793 16.996 7.16106 17.0483 7.1742 17.0974C7.18735 17.1464 7.21945 17.1882 7.26344 17.2136L7.77473 17.5088L7.25644 17.8081C7.21311 17.8338 7.18165 17.8756 7.1689 17.9243C7.15614 17.9731 7.16312 18.0249 7.18832 18.0685C7.21351 18.1122 7.25489 18.1441 7.30349 18.1575C7.35209 18.1708 7.40398 18.1645 7.44793 18.1398L7.96625 17.8405V18.437C7.96624 18.4621 7.97119 18.487 7.9808 18.5102C7.99042 18.5335 8.00453 18.5546 8.02231 18.5724C8.04009 18.5902 8.06121 18.6043 8.08444 18.6139C8.10768 18.6235 8.13258 18.6284 8.15773 18.6284C8.18288 18.6284 8.20779 18.6235 8.23102 18.6139C8.25426 18.6043 8.27537 18.5902 8.29316 18.5724C8.31094 18.5546 8.32504 18.5335 8.33466 18.5102C8.34428 18.487 8.34923 18.4621 8.34922 18.437V17.8405L8.86754 18.1398C8.89659 18.1566 8.92954 18.1654 8.96309 18.1654C9.00526 18.1655 9.04628 18.1516 9.07976 18.126C9.11325 18.1003 9.13733 18.0643 9.14827 18.0236C9.1592 17.9829 9.15638 17.9397 9.14025 17.9007C9.12411 17.8617 9.09556 17.8292 9.05902 17.8081ZM12.7436 17.8081L12.2253 17.5089L12.7366 17.2137C12.7805 17.1883 12.8126 17.1465 12.8258 17.0974C12.8389 17.0483 12.8321 16.9961 12.8067 16.9521C12.7537 16.8603 12.6364 16.8288 12.5451 16.882L12.0337 17.1772V16.5846C12.0338 16.5595 12.0288 16.5346 12.0192 16.5114C12.0096 16.4881 11.9955 16.467 11.9777 16.4492C11.9599 16.4314 11.9388 16.4173 11.9156 16.4077C11.8923 16.3981 11.8674 16.3932 11.8423 16.3932C11.8171 16.3932 11.7922 16.3981 11.769 16.4077C11.7457 16.4173 11.7246 16.4314 11.7068 16.4492C11.6891 16.467 11.675 16.4881 11.6653 16.5114C11.6557 16.5346 11.6508 16.5595 11.6508 16.5846V17.1772L11.1395 16.882C11.1177 16.8693 11.0936 16.8611 11.0687 16.8578C11.0437 16.8545 11.0184 16.8561 10.9941 16.8626C10.9698 16.8691 10.947 16.8804 10.927 16.8958C10.9071 16.9111 10.8904 16.9302 10.8779 16.9521C10.8525 16.9961 10.8456 17.0483 10.8587 17.0974C10.8719 17.1465 10.904 17.1883 10.948 17.2137L11.4593 17.5089L10.9411 17.8081C10.8977 17.8338 10.8663 17.8756 10.8535 17.9243C10.8408 17.9731 10.8477 18.0249 10.8729 18.0685C10.8981 18.1122 10.9395 18.1441 10.9881 18.1575C11.0367 18.1708 11.0886 18.1645 11.1325 18.1398L11.6508 17.8405V18.4369C11.6508 18.4621 11.6557 18.487 11.6653 18.5102C11.675 18.5334 11.6891 18.5546 11.7068 18.5723C11.7246 18.5901 11.7457 18.6042 11.769 18.6138C11.7922 18.6235 11.8171 18.6284 11.8423 18.6284C11.8674 18.6284 11.8923 18.6235 11.9156 18.6138C11.9388 18.6042 11.9599 18.5901 11.9777 18.5723C11.9955 18.5546 12.0096 18.5334 12.0192 18.5102C12.0288 18.487 12.0338 18.4621 12.0337 18.4369V17.8405L12.5521 18.1398C12.5811 18.1565 12.6141 18.1654 12.6476 18.1654C12.6898 18.1654 12.7307 18.1515 12.7642 18.1259C12.7976 18.1002 12.8217 18.0642 12.8326 18.0235C12.8436 17.9828 12.8407 17.9396 12.8246 17.9007C12.8085 17.8617 12.78 17.8292 12.7436 17.8081ZM16.4281 17.8081L15.9098 17.5088L16.4211 17.2136C16.4651 17.1882 16.4972 17.1464 16.5104 17.0974C16.5235 17.0483 16.5166 16.996 16.4912 16.952C16.4787 16.9302 16.462 16.9111 16.442 16.8958C16.4221 16.8804 16.3993 16.8692 16.375 16.8627C16.3507 16.8561 16.3254 16.8545 16.3004 16.8578C16.2755 16.8611 16.2514 16.8693 16.2296 16.8819L15.7183 17.1771V16.5846C15.7183 16.5595 15.7134 16.5346 15.7038 16.5113C15.6941 16.4881 15.68 16.467 15.6623 16.4492C15.6445 16.4314 15.6234 16.4173 15.6001 16.4077C15.5769 16.3981 15.552 16.3931 15.5268 16.3931C15.5017 16.3931 15.4768 16.3981 15.4535 16.4077C15.4303 16.4173 15.4092 16.4314 15.3914 16.4492C15.3736 16.467 15.3595 16.4881 15.3499 16.5113C15.3403 16.5346 15.3353 16.5595 15.3354 16.5846V17.1771L14.824 16.8819C14.8023 16.8693 14.7782 16.8611 14.7533 16.8577C14.7283 16.8544 14.703 16.8561 14.6786 16.8626C14.6543 16.8691 14.6316 16.8804 14.6116 16.8957C14.5917 16.9111 14.5749 16.9302 14.5624 16.952C14.537 16.996 14.5302 17.0483 14.5433 17.0974C14.5565 17.1464 14.5886 17.1882 14.6325 17.2136L15.1438 17.5088L14.6255 17.8081C14.5822 17.8338 14.5508 17.8756 14.538 17.9243C14.5252 17.9731 14.5322 18.0249 14.5574 18.0685C14.5826 18.1122 14.624 18.1441 14.6726 18.1575C14.7212 18.1708 14.7731 18.1645 14.817 18.1398L15.3354 17.8405V18.437C15.3353 18.4621 15.3403 18.487 15.3499 18.5102C15.3595 18.5335 15.3736 18.5546 15.3914 18.5724C15.4092 18.5902 15.4303 18.6043 15.4535 18.6139C15.4768 18.6235 15.5017 18.6284 15.5268 18.6284C15.552 18.6284 15.5769 18.6235 15.6001 18.6139C15.6234 18.6043 15.6445 18.5902 15.6623 18.5724C15.68 18.5546 15.6941 18.5335 15.7038 18.5102C15.7134 18.487 15.7183 18.4621 15.7183 18.437V17.8405L16.2366 18.1398C16.2657 18.1566 16.2986 18.1654 16.3322 18.1654C16.3744 18.1655 16.4154 18.1516 16.4489 18.126C16.4824 18.1003 16.5064 18.0643 16.5174 18.0236C16.5283 17.9829 16.5255 17.9397 16.5093 17.9007C16.4932 17.8617 16.4647 17.8292 16.4281 17.8081Z" fill="#4E4E4E"/>
</g>
</svg>
