<svg preserveAspectRatio="none" overflow="visible" style="display: block;" width="24" height="24" viewBox="0 0 24 24" fill="none" xmlns="http://www.w3.org/2000/svg">
<g id="token 1">
<path id="Vector" d="M9 11.5C9.84015 11.5 10.6122 11.7965 11.2154 12.29C11.4548 12.4948 11.6236 12.8165 11.3726 13.0971C11.1388 13.3584 10.812 13.2607 10.5821 13.0639C10.1509 12.7111 9.6006 12.5 9 12.5C7.6193 12.5 6.5 13.6193 6.5 15C6.5 16.3807 7.6193 17.5 9 17.5C9.64055 17.5 10.2239 17.2599 10.6665 16.8638C10.8723 16.6796 11.1884 16.697 11.3726 16.9028C11.5567 17.1086 11.5392 17.4248 11.3335 17.6089C10.7146 18.1628 9.89605 18.5 9 18.5C7.067 18.5 5.5 16.933 5.5 15C5.5 13.067 7.067 11.5 9 11.5ZM14.6402 5C15.8097 5.00005 16.9773 5.39845 17.8667 6.16015C18.0391 6.3458 18.0463 6.6356 17.8755 6.8301C17.7045 7.0245 17.4162 7.05455 17.2099 6.90725C16.4876 6.3172 15.5751 6.00005 14.6402 6C13.7609 6 12.947 6.35265 12.3232 6.88135C12.1126 7.0599 11.7972 7.0339 11.6187 6.82325C11.4401 6.6126 11.4661 6.2972 11.6768 6.11865C12.4542 5.45975 13.4909 5 14.6402 5Z" fill="#4E4E4E"/>
<path id="Vector_2" fill-rule="evenodd" clip-rule="evenodd" d="M15.0722 3.10483C18.5218 3.22909 21.2174 6.12621 21.0932 9.57578C20.9717 12.9487 18.1991 15.6001 14.8512 15.6001C14.4887 18.6711 11.8229 20.9995 8.67795 20.8862C5.3664 20.7669 2.77854 17.9856 2.89784 14.6741C3.01112 11.5293 5.525 9.03748 8.61393 8.89659C8.85503 5.55766 11.6994 2.98334 15.0722 3.10483ZM9.07394 9.8933C6.31433 9.79389 3.9966 11.9505 3.89719 14.7101C3.79778 17.4697 5.95434 19.7874 8.71395 19.8868C11.4736 19.9862 13.7913 17.8297 13.8907 15.0701C13.9901 12.3104 11.8336 9.99271 9.07394 9.8933ZM15.0362 4.10418C12.2153 4.00257 9.83459 6.146 9.61421 8.93313C12.514 9.28044 14.7488 11.6825 14.8868 14.5998C17.6827 14.5807 19.9922 12.3608 20.0938 9.53978C20.1982 6.64216 17.9338 4.20856 15.0362 4.10418Z" fill="#4E4E4E"/>
</g>
</svg>
